<?xml version="1.0" standalone="no"?>
<!DOCTYPE svg PUBLIC "-//W3C//DTD SVG 20010904//EN"
 "http://www.w3.org/TR/2001/REC-SVG-20010904/DTD/svg10.dtd">
<svg version="1.0" xmlns="http://www.w3.org/2000/svg"
 width="500.000000pt" height="500.000000pt" viewBox="0 0 500.000000 500.000000"
 preserveAspectRatio="xMidYMid meet">
<metadata>
Created by potrace 1.16, written by Peter Selinger 2001-2019
</metadata>
<g transform="translate(0.000000,500.000000) scale(0.100000,-0.100000)"
fill="#000000" stroke="none">
<path d="M3445 4749 c-194 -17 -406 -74 -548 -145 -360 -181 -531 -482 -496
-879 18 -212 83 -360 238 -547 52 -63 69 -75 256 -178 1657 -917 2080 -1146
2090 -1131 6 9 10 96 10 206 0 170 -2 199 -24 273 -45 160 -154 336 -290 471
-114 114 -333 281 -677 516 -427 292 -595 455 -657 634 -29 81 -35 249 -12
327 45 158 150 260 314 306 86 24 261 26 346 3 228 -61 439 -268 564 -553 68
-154 102 -288 137 -529 5 -33 6 -33 59 -33 l55 0 0 143 c0 235 20 1010 26
1045 l6 32 -60 0 -59 0 -7 -52 c-9 -65 -43 -146 -67 -158 -35 -19 -69 -9 -226
70 -177 88 -323 141 -458 165 -110 19 -384 27 -520 14z"/>
<path d="M290 4642 l0 -49 65 -7 c35 -4 94 -16 129 -26 104 -33 137 -87 154
-255 l7 -67 505 -278 505 -278 5 346 c6 389 11 421 69 482 40 42 76 55 199 73
l82 11 0 49 0 49 -112 -7 c-148 -10 -1373 -10 -1505 0 l-103 7 0 -50z"/>
<path d="M637 2388 c-3 -1176 -6 -1344 -20 -1423 -69 -381 -185 -543 -451
-624 -37 -12 -79 -21 -92 -21 -22 0 -24 -4 -24 -55 l0 -55 38 0 c20 0 100 5
177 10 406 29 715 134 961 325 234 183 353 400 399 728 26 189 35 488 35 1192
l0 700 -504 278 c-277 152 -506 277 -509 277 -4 0 -8 -600 -10 -1332z"/>
<path d="M2387 1932 c-4 -345 -10 -669 -13 -720 l-7 -92 57 0 c37 0 58 4 60
13 2 6 11 44 20 82 20 83 49 119 97 117 18 0 75 -22 128 -48 186 -91 365 -149
550 -178 210 -34 529 -30 761 10 268 46 562 176 688 307 l32 33 -375 207
c-206 114 -376 207 -377 207 -2 0 -2 -51 0 -114 6 -173 -27 -268 -127 -366
-115 -112 -290 -166 -506 -157 -140 6 -210 23 -322 78 -193 95 -336 294 -437
606 -43 134 -81 319 -96 468 -20 192 -13 175 -74 175 l-53 0 -6 -628z"/>
</g>
</svg>
