<?xml version="1.0" standalone="no"?>
<!DOCTYPE svg PUBLIC "-//W3C//DTD SVG 20010904//EN"
 "http://www.w3.org/TR/2001/REC-SVG-20010904/DTD/svg10.dtd">
<svg version="1.0" xmlns="http://www.w3.org/2000/svg"
 width="1888.000000pt" height="964.000000pt" viewBox="0 0 1888.000000 964.000000"
 preserveAspectRatio="xMidYMid meet">
<metadata>
Created by potrace 1.16, written by Peter Selinger 2001-2019
</metadata>
<g transform="translate(0.000000,964.000000) scale(0.100000,-0.100000)"
fill="#000000" stroke="none">
<path d="M15381 9113 c-59 -21 -133 -96 -153 -153 -13 -40 -13 -50 0 -89 20
-61 94 -133 157 -154 42 -15 105 -17 505 -17 400 0 463 2 505 17 63 21 136 93
157 153 13 40 13 50 0 89 -20 61 -94 133 -157 154 -43 15 -104 17 -509 16
-392 0 -468 -3 -505 -16z m263 -69 c9 -3 16 -15 16 -25 0 -17 9 -19 101 -19
92 0 101 2 106 20 5 17 14 20 69 20 57 0 64 -2 64 -20 0 -19 7 -20 100 -20 93
0 100 1 100 20 0 18 7 20 65 20 58 0 65 -2 65 -20 0 -11 7 -20 15 -20 12 0 15
-19 15 -115 l0 -115 -444 0 c-244 0 -452 3 -461 6 -29 11 -45 60 -45 134 0 72
10 105 39 127 17 13 166 18 195 7z"/>
<path d="M9570 8017 c-39 -32 -95 -116 -142 -214 -29 -59 -71 -137 -95 -171
-43 -64 -43 -64 -37 -130 4 -37 18 -95 33 -128 22 -53 34 -67 88 -103 42 -28
63 -49 63 -62 0 -24 6 -26 98 -33 l72 -6 0 45 0 45 -45 0 -45 0 0 59 0 58 42
7 c31 5 38 10 30 18 -20 20 -14 105 11 148 17 31 28 40 50 40 25 0 27 3 27 38
l0 38 -57 -4 c-32 -2 -70 1 -85 7 -27 10 -28 13 -28 90 0 44 5 83 10 86 6 3
10 14 10 24 0 29 35 53 89 60 48 6 49 7 33 26 -16 19 -93 75 -103 75 -2 0 -11
-6 -19 -13z m-36 -503 c12 -30 6 -111 -8 -123 -8 -7 -37 -11 -68 -9 l-53 3 -3
59 c-2 32 -1 65 2 72 8 21 122 19 130 -2z"/>
<path d="M10940 2779 c-31 -13 -78 -56 -95 -90 -11 -21 -11 -30 2 -58 9 -18
32 -44 51 -59 l35 -27 369 -3 c367 -3 369 -3 409 20 43 24 79 72 79 106 0 28
-57 92 -97 108 -40 17 -712 19 -753 3z"/>
<path d="M13135 2765 c-54 -19 -105 -75 -105 -116 0 -41 60 -103 115 -118 54
-15 666 -15 720 0 53 15 115 79 115 119 0 40 -62 104 -115 119 -63 17 -679 14
-730 -4z"/>
<path d="M6001 2039 c-41 -16 -98 -68 -130 -117 -17 -27 -31 -51 -31 -53 0 -2
39 -4 87 -4 l88 0 3 -57 c2 -48 6 -58 24 -64 20 -6 20 -11 14 -88 -3 -44 -6
-98 -6 -118 l0 -38 -155 0 -154 0 -7 36 c-3 19 -4 55 -1 80 4 43 4 44 -11 22
-29 -44 -77 -90 -117 -111 -33 -18 -57 -22 -143 -22 l-102 0 -6 -32 c-5 -28
-10 -32 -52 -38 -143 -20 -315 -89 -373 -149 -46 -48 -86 -125 -101 -197 -10
-49 -9 -63 11 -129 26 -86 94 -225 173 -355 126 -209 298 -542 298 -580 l0
-25 1100 0 1100 0 0 29 c0 31 30 85 212 378 65 105 129 216 143 246 34 79 57
198 49 260 -16 126 -86 272 -178 374 -54 59 -56 63 -56 116 0 49 10 76 79 221
66 137 83 166 101 166 51 0 120 61 120 106 0 32 -55 84 -90 84 -31 0 -83 -51
-95 -92 -3 -13 -47 -105 -98 -205 -89 -176 -93 -183 -122 -183 -17 0 -36 -5
-42 -11 -7 -7 -35 -9 -79 -5 -38 4 -189 9 -336 12 -207 4 -268 8 -268 18 0 32
-65 139 -107 175 -47 42 -134 81 -180 81 -14 0 -45 11 -67 24 -47 27 -126 46
-191 46 -34 0 -45 4 -45 15 0 9 -7 29 -15 45 -14 27 -20 30 -65 30 -39 0 -50
3 -50 16 0 24 -38 72 -70 89 -16 8 -30 15 -32 14 -2 0 -14 -5 -27 -10z"/>
<path d="M14010 1721 c-19 -10 -48 -36 -64 -58 l-28 -41 18 -37 c9 -20 35 -49
57 -63 l41 -27 350 -3 c231 -2 364 0 388 8 43 12 108 82 108 116 0 27 -51 89
-91 110 -23 11 -93 14 -386 14 -330 0 -361 -1 -393 -19z"/>
<path d="M11927 956 c-45 -16 -83 -49 -103 -88 -13 -24 -13 -32 0 -57 21 -40
70 -79 117 -91 26 -7 158 -10 377 -8 319 3 339 4 372 24 38 22 80 77 80 104 0
27 -42 82 -80 104 -33 20 -52 21 -380 23 -275 2 -353 0 -383 -11z"/>
<path d="M14080 844 c-57 -10 -70 -15 -100 -40 -17 -15 -37 -39 -46 -55 -13
-25 -13 -32 0 -56 21 -41 68 -82 107 -93 19 -6 179 -10 369 -10 304 0 339 2
376 19 44 20 81 60 90 98 9 33 -35 95 -83 119 -35 17 -65 19 -363 20 -179 1
-336 0 -350 -2z"/>
</g>
</svg>
