<?xml version="1.0" standalone="no"?>
<!DOCTYPE svg PUBLIC "-//W3C//DTD SVG 20010904//EN"
 "http://www.w3.org/TR/2001/REC-SVG-20010904/DTD/svg10.dtd">
<svg version="1.0" xmlns="http://www.w3.org/2000/svg"
 width="500.000000pt" height="500.000000pt" viewBox="0 0 500.000000 500.000000"
 preserveAspectRatio="xMidYMid meet">
<metadata>
Created by potrace 1.16, written by Peter Selinger 2001-2019
</metadata>
<g transform="translate(0.000000,500.000000) scale(0.100000,-0.100000)"
fill="#000000" stroke="none">
<path d="M3025 3794 c-224 -40 -390 -121 -523 -256 -73 -74 -125 -167 -152
-274 -24 -93 -25 -139 -5 -236 14 -66 76 -218 89 -218 3 0 119 94 258 209
l253 210 0 153 c0 183 13 231 82 308 47 52 96 83 168 106 l40 13 -65 -1 c-36
0 -101 -6 -145 -14z"/>
<path d="M913 3730 c61 -54 60 -36 66 -1132 l6 -997 337 280 337 280 3 737 c4
797 4 790 58 835 l26 22 -431 0 -430 0 28 -25z"/>
<path d="M3129 2613 c-123 -102 -232 -193 -242 -202 -17 -16 -11 -21 115 -106
280 -189 453 -348 517 -476 49 -98 65 -186 59 -344 -3 -107 -7 -128 -31 -177
-64 -132 -222 -215 -415 -220 l-67 -1 80 -7 c44 -3 133 -2 197 2 534 37 899
323 901 708 0 95 -22 183 -73 285 -97 198 -237 326 -691 637 l-126 86 -224
-185z"/>
<path d="M2320 1585 l0 -358 23 21 c19 18 35 22 95 22 63 0 82 -5 145 -36 l72
-36 -56 59 c-121 126 -201 307 -250 564 -11 63 -23 116 -25 118 -2 2 -4 -157
-4 -354z"/>
<path d="M1290 1085 l-353 -294 -22 -68 c-44 -137 -92 -209 -179 -265 -69 -44
-59 -48 69 -23 255 49 448 146 605 305 103 104 160 204 195 343 21 85 50 285
42 293 -2 2 -162 -129 -357 -291z"/>
</g>
</svg>
